<svg xmlns="http://www.w3.org/2000/svg" viewBox="0 0 512 512" shape-rendering="geometricPrecision">
  <!-- Fond blanc arrondi -->
  <rect width="512" height="512" rx="115" ry="115" fill="white"/>

  <!-- Fééti logomark centré et mis à l'échelle (viewBox original 73×69 → ~352×333 dans 512×512) -->
  <g transform="translate(80, 89.7) scale(4.82)" clip-path="url(#rounded)">
    <!-- Étoile principale (blanc) -->
    <path fill="white" d="M66.3977 34.086C66.3581 33.5681 65.9878 33.1366 65.4824 33.0222C64.7768 32.8613 48.9281 29.2523 41.7293 28.6037C41.2938 20.9588 40.1573 8.13949 37.246 0.748856C37.0667 0.296272 36.6312 -6.92188e-06 36.1468 -6.92188e-06C35.6624 -6.92188e-06 35.2245 0.296272 35.0475 0.748856C32.1363 8.13949 30.9974 20.9565 30.5643 28.6014C22.9718 29.2593 7.49119 32.8613 6.80414 33.0222C6.30108 33.1389 5.93079 33.5705 5.89352 34.0884C5.85626 34.604 6.1567 35.0869 6.63879 35.2758C14.0798 38.2153 23.5634 39.3421 30.5643 39.762C30.9998 47.4093 32.1386 60.2122 35.0452 67.5982C35.2222 68.0508 35.66 68.3471 36.1445 68.3471C36.6289 68.3471 37.0667 68.0508 37.2437 67.5982C40.1503 60.2122 41.2915 47.4093 41.7247 39.762C48.7255 39.3421 58.2091 38.213 65.6501 35.2758C66.1322 35.0845 66.435 34.6016 66.3954 34.0837L66.3977 34.086ZM39.4237 29.7702C39.4563 30.3767 39.9383 30.8596 40.5439 30.89C44.9899 31.1186 55.0999 33.1855 60.8175 34.415C54.0402 36.3793 46.2871 37.1585 40.5439 37.4571C39.9407 37.4898 39.4563 37.9727 39.426 38.5769C39.0976 44.9014 38.2522 55.7494 36.1468 63.3756C34.0414 55.7494 33.196 44.8991 32.8676 38.5769C32.8373 37.9727 32.3529 37.4874 31.7497 37.4571C25.9971 37.1585 18.2277 36.377 11.4434 34.4057C17.0469 33.1809 26.945 31.1396 31.7497 30.89C32.3529 30.8596 32.8373 30.3744 32.8676 29.7702C33.196 23.4457 34.0391 12.5977 36.1468 4.97141C38.6644 12.4414 39.426 29.7702 39.426 29.7702H39.4237Z"/>
    <!-- Accent violet (haut-droite) -->
    <path fill="#9b21ff" d="M25.0469 12.7633C25.2309 13.1949 25.6478 13.4538 26.088 13.4538C26.237 13.4538 26.3861 13.4235 26.5305 13.3629C27.1057 13.1179 27.3736 12.4507 27.129 11.8768L22.3733 0.692864C22.1287 0.116637 21.4626 -0.151647 20.8897 0.0933082C20.3145 0.338263 20.0466 1.00547 20.2912 1.57937L25.0469 12.7633Z"/>
    <!-- Accent jaune (haut-gauche) -->
    <path fill="#F1C519" d="M0.732547 19.4004L11.9628 24.0102C12.1002 24.0662 12.2446 24.0942 12.3844 24.0942C12.8339 24.0966 13.2577 23.8306 13.4394 23.3897C13.6769 22.8111 13.3998 22.1486 12.8222 21.9106L1.59194 17.3008C1.01435 17.0629 0.352934 17.3405 0.115379 17.919C-0.122175 18.4976 0.154963 19.1601 0.732547 19.3981V19.4004Z"/>
    <!-- Accent rose (haut) -->
    <path fill="#E43962" d="M47.2699 12.7633C47.0859 13.1949 46.669 13.4538 46.2289 13.4538C46.0798 13.4538 45.9308 13.4235 45.7864 13.3629C45.2111 13.1179 44.9433 12.4507 45.1878 11.8768L49.9436 0.692864C50.1881 0.116637 50.8542 -0.151647 51.4271 0.0933082C52.0024 0.338263 52.2702 1.00547 52.0257 1.57937L47.2699 12.7633Z"/>
    <!-- Accent teal (droite-haut) -->
    <path fill="#16BDA0" d="M71.5867 19.4004L60.3564 24.0102C60.219 24.0662 60.0746 24.0942 59.9348 24.0942C59.4853 24.0966 59.0615 23.8306 58.8798 23.3897C58.6423 22.8111 58.9194 22.1486 59.497 21.9106L70.7273 17.3008C71.3048 17.0629 71.9663 17.3405 72.2038 17.919C72.4414 18.4976 72.1642 19.1601 71.5867 19.3981V19.4004Z"/>
    <!-- Accent violet (bas-droite) -->
    <path fill="#9b21ff" d="M47.2397 56.2393C47.0557 55.8077 46.6388 55.5488 46.1986 55.5488C46.0496 55.5488 45.9005 55.5791 45.7561 55.6397C45.1809 55.8847 44.913 56.5519 45.1576 57.1258L49.9133 68.3097C50.1578 68.886 50.8239 69.1543 51.3969 68.9093C51.9721 68.6643 52.24 67.9971 51.9954 67.4232L47.2397 56.2393Z"/>
    <!-- Accent jaune (bas-droite) -->
    <path fill="#F1C519" d="M71.5564 49.6022L60.3261 44.9924C60.1887 44.9364 60.0443 44.9084 59.9046 44.9084C59.4551 44.9061 59.0312 45.172 58.8495 45.6129C58.612 46.1915 58.8891 46.854 59.4667 47.092L70.697 51.7018C71.2746 51.9398 71.936 51.6621 72.1736 51.0836C72.4111 50.505 72.134 49.8425 71.5564 49.6045V49.6022Z"/>
    <!-- Accent rose (bas) -->
    <path fill="#E43962" d="M25.0166 56.2393C25.2006 55.8077 25.6175 55.5488 26.0577 55.5488C26.2068 55.5488 26.3558 55.5791 26.5002 55.6397C27.0755 55.8847 27.3433 56.5519 27.0987 57.1258L22.343 68.3097C22.0984 68.886 21.4324 69.1543 20.8594 68.9093C20.2842 68.6643 20.0164 67.9971 20.2609 67.4232L25.0166 56.2393Z"/>
    <!-- Accent teal (bas-gauche) -->
    <path fill="#16BDA0" d="M0.702258 49.6022L11.9325 44.9924C12.0699 44.9364 12.2143 44.9084 12.3541 44.9084C12.8036 44.9061 13.2274 45.172 13.4091 45.6129C13.6467 46.1915 13.3695 46.854 12.7919 47.092L1.56165 51.7018C0.984063 51.9398 0.322645 51.6621 0.0850904 51.0836C-0.152464 50.505 0.124674 49.8425 0.702258 49.6045V49.6022Z"/>
  </g>
</svg>
